<svg xmlns="http://www.w3.org/2000/svg" width="120" height="160" viewBox="0 0 120 160" fill="none" role="img" aria-label="Marid flame mark">
  <defs>
    <linearGradient id="maridEmber" x1="0" y1="0" x2="0" y2="1">
      <stop offset="0%" stop-color="#FBD24A"/>
      <stop offset="48%" stop-color="#F5901E"/>
      <stop offset="100%" stop-color="#DC2A16"/>
    </linearGradient>
    <linearGradient id="maridCore" x1="0" y1="0" x2="0" y2="1">
      <stop offset="0%" stop-color="#FDEFB0"/>
      <stop offset="100%" stop-color="#F8B73C"/>
    </linearGradient>
  </defs>
  <path fill="url(#maridEmber)" d="M62 4 C 70 30, 74 40, 86 54 C 100 71, 96 104, 78 122 C 88 100, 80 84, 68 78 C 74 96, 66 112, 52 120 C 58 104, 50 96, 44 104 C 40 110, 40 120, 46 130 C 30 120, 20 98, 26 74 C 31 54, 48 46, 52 26 C 54 16, 56 10, 62 4 Z"/>
  <path fill="url(#maridCore)" d="M60 52 C 66 66, 72 74, 68 92 C 65 106, 60 112, 58 124 C 52 112, 46 104, 46 90 C 46 74, 54 66, 60 52 Z"/>
</svg>
